<?xml version="1.0" encoding="utf-8"?>
<!-- Generator: Adobe Illustrator 26.1.0, SVG Export Plug-In . SVG Version: 6.00 Build 0)  -->
<svg version="1.1" id="Layer_1" xmlns="http://www.w3.org/2000/svg" xmlns:xlink="http://www.w3.org/1999/xlink" x="0px" y="0px"
	 viewBox="0 0 200 30" style="enable-background:new 0 0 200 30;" xml:space="preserve">
<style type="text/css">
	.st0{fill:#010101;}
	.st1{fill:#5C67B0;}
</style>
<g>
	<g>
		<path class="st0" d="M14.4,23.5L1.4,18.4v-1.7l12.9-5.8v2.8l-8.9,3.7l8.9,3.3V23.5z"/>
		<path class="st1" d="M28.3,25.8c-1.1-0.2-2.2-0.5-3.2-0.9s-1.9-0.9-2.7-1.5l2.2-3.5c1,0.7,2.1,1.3,3.3,1.6s2.5,0.6,3.9,0.6
			c1.5,0,2.7-0.2,3.6-0.7s1.3-1.1,1.3-2v0c0-0.6-0.2-1.1-0.6-1.4c-0.4-0.3-0.9-0.6-1.5-0.8c-0.6-0.2-1.4-0.3-2.3-0.4
			c0,0-0.1,0-0.1,0c0,0-0.1,0-0.1,0l-0.4,0c-1.7-0.2-3-0.5-4.1-0.9c-1.1-0.4-2-1-2.8-1.9c-0.8-0.9-1.1-2.1-1.1-3.8v0
			c0-1.4,0.4-2.7,1.1-3.7c0.7-1,1.8-1.8,3.1-2.3c1.4-0.5,3-0.8,5-0.8c0.9,0,1.8,0.1,2.7,0.3s1.8,0.5,2.7,0.8
			c0.9,0.3,1.7,0.8,2.5,1.3l-2,3.6c-1-0.6-2-1.1-3-1.4c-1-0.3-2-0.5-3-0.5c-1.4,0-2.6,0.2-3.3,0.6c-0.8,0.4-1.2,1-1.2,1.8v0
			c0,0.6,0.2,1.2,0.6,1.5c0.4,0.4,0.9,0.6,1.5,0.8c0.6,0.2,1.5,0.4,2.6,0.6c0,0,0.1,0,0.1,0c0,0,0.1,0,0.1,0c0.1,0,0.1,0,0.2,0
			c0.1,0,0.1,0,0.2,0c1.6,0.3,2.9,0.6,3.9,1c1.1,0.4,1.9,1,2.6,1.9c0.7,0.9,1.1,2.1,1.1,3.6v0c0,1.4-0.4,2.6-1.1,3.7
			c-0.7,1-1.8,1.8-3.2,2.3c-1.4,0.5-3.1,0.8-5.1,0.8C30.6,26.1,29.5,26,28.3,25.8z"/>
		<path class="st0" d="M52.3,22.8c0,0.5,0.2,0.7,0.6,0.7c0.5,0,1.4-0.8,2.7-2.4c0-0.3-0.1-0.5-0.1-0.6c0-0.6,0.3-1.3,0.8-2.1
			s1.1-1.5,1.7-2.2c0.7-0.6,1.2-0.9,1.5-0.9c0.4,0,0.6,0.4,0.6,1.3c0,0.7-0.2,1.4-0.5,2.2c-0.3,0.7-0.8,1.4-1.5,2.2
			c0.1,0.1,0.2,0.2,0.4,0.3c0.1,0.1,0.3,0.2,0.4,0.3c0.1,0.1,0.3,0.1,0.5,0.1c0.4,0,0.9-0.3,1.5-0.8V22c-0.9,0.9-1.7,1.3-2.4,1.3
			c-0.4,0-0.7,0-0.9-0.1s-0.5-0.3-0.9-0.5c-2.2,2.3-3.8,3.5-4.9,3.5c-0.4,0-0.8-0.1-1-0.4c-0.3-0.3-0.4-0.7-0.4-1.2
			c0-0.3,0.1-1.2,0.4-2.8c-0.5,0.5-1,1-1.6,1.7c-0.6,0.6-1.1,1.1-1.5,1.5c-0.4,0.3-0.7,0.6-1,0.8c-0.3,0.2-0.6,0.3-1,0.3
			c-0.3,0-0.7-0.2-1.1-0.5c-0.4-0.4-0.8-0.8-1.1-1.4s-0.5-1.2-0.5-1.9c0-0.7,0.1-1.2,0.3-1.7c0.2-0.5,0.7-1.2,1.4-2.1
			c0.7-0.8,1.3-1.5,1.8-2.1c0.5-0.5,1-1,1.4-1.3c0.4-0.3,0.8-0.4,1-0.4c0.2,0,0.4,0,0.6,0.1c0.3,0.1,0.5,0.2,0.7,0.3
			c0.2,0.1,0.3,0.2,0.3,0.4c0,0.4-0.2,0.9-0.6,1.5c-0.4,0.6-1,1.3-1.7,2.1c-0.8,0.8-1.7,1.5-2.7,2.3c-0.3,0.7-0.4,1.3-0.4,1.8
			c0,0.1,0,0.3,0.1,0.4s0.2,0.2,0.4,0.2c0.5,0,1.4-0.7,2.8-2s3.2-3.4,5.4-6.1c0.1-0.1,0.3-0.2,0.5-0.2c0.3,0,0.6,0.1,0.8,0.2
			c0.2,0.1,0.4,0.3,0.4,0.5c0,0.1-0.3,0.7-0.9,1.9c-0.6,1.1-1.1,2.1-1.6,3.1C52.6,21.6,52.3,22.3,52.3,22.8z"/>
		<path class="st0" d="M63.6,21.5v0.4c0,0.6,0.2,1.1,0.5,1.5c0.3,0.3,0.8,0.5,1.3,0.5c0.6,0,1.2-0.1,1.8-0.4c0.6-0.2,1.2-0.6,1.8-1
			c0.6-0.4,1.4-0.9,2.2-1.6v1c-1.3,1.4-2.6,2.5-3.7,3.3s-2.3,1.1-3.5,1.1c-1,0-1.9-0.4-2.5-1.1c-0.6-0.7-0.9-1.7-0.9-3
			c0-1.1,0.3-2.1,0.9-3c0.6-0.9,1.5-1.9,2.8-2.9c0.9-0.7,1.8-1.2,2.7-1.6s1.7-0.5,2.4-0.5c0.6,0,1,0.1,1.3,0.3
			c0.3,0.2,0.5,0.6,0.5,1c0,0.7-0.3,1.3-0.8,2c-0.6,0.7-1.4,1.3-2.5,2S65.3,20.9,63.6,21.5z M63.8,20.5c1.1-0.4,2-0.8,2.7-1.4
			c0.8-0.5,1.3-1.1,1.7-1.6c0.4-0.5,0.5-0.9,0.5-1.1c0-0.2-0.1-0.4-0.4-0.4c-0.2,0-0.6,0.1-1,0.4c-0.5,0.2-1,0.6-1.4,0.9
			c-0.5,0.4-0.9,0.8-1.3,1.4S63.9,19.8,63.8,20.5z"/>
		<path class="st0" d="M74.1,21.5v0.4c0,0.6,0.2,1.1,0.5,1.5c0.3,0.3,0.8,0.5,1.3,0.5c0.6,0,1.2-0.1,1.8-0.4c0.6-0.2,1.2-0.6,1.8-1
			c0.6-0.4,1.4-0.9,2.2-1.6v1c-1.3,1.4-2.6,2.5-3.7,3.3s-2.3,1.1-3.5,1.1c-1,0-1.9-0.4-2.5-1.1c-0.6-0.7-0.9-1.7-0.9-3
			c0-1.1,0.3-2.1,0.9-3c0.6-0.9,1.5-1.9,2.8-2.9c0.9-0.7,1.8-1.2,2.7-1.6s1.7-0.5,2.4-0.5c0.6,0,1,0.1,1.3,0.3
			c0.3,0.2,0.5,0.6,0.5,1c0,0.7-0.3,1.3-0.8,2c-0.6,0.7-1.4,1.3-2.5,2S75.8,20.9,74.1,21.5z M74.3,20.5c1.1-0.4,2-0.8,2.7-1.4
			c0.8-0.5,1.3-1.1,1.7-1.6c0.4-0.5,0.5-0.9,0.5-1.1c0-0.2-0.1-0.4-0.4-0.4c-0.2,0-0.6,0.1-1,0.4c-0.5,0.2-1,0.6-1.4,0.9
			c-0.5,0.4-0.9,0.8-1.3,1.4S74.4,19.8,74.3,20.5z"/>
		<path class="st1" d="M80.9,3.5h18.2v4.1H80.9V3.5z M87.6,5.4h4.7v20.6h-4.7V5.4z"/>
		<path class="st1" d="M100.3,3.5h18.2v4.1h-18.2V3.5z M107.1,5.4h4.7v20.6h-4.7V5.4z"/>
		<path class="st0" d="M118,22.1v-1c0.6-0.7,1.1-1.2,1.4-1.7c-0.4-0.1-0.6-0.3-0.8-0.4s-0.3-0.4-0.3-0.8c0-0.4,0.2-0.9,0.5-1.4
			c0.4-0.6,0.8-1.1,1.3-1.6c0.5-0.5,1-0.8,1.4-1c0.2-0.1,0.3-0.1,0.5-0.1c0.2,0,0.4,0.1,0.4,0.3c0,0.2-0.2,0.5-0.5,1.1
			c2.4-0.3,3.9-0.5,4.6-0.5c0.2,0,0.4,0,0.5,0.1c0.2,0.1,0.4,0.3,0.5,0.7c0.1,0.3,0.2,0.7,0.2,1c0,0.2-0.1,0.5-0.3,0.7
			c-0.2,0.3-0.6,0.6-1.1,1.1c-0.6,0.6-1.1,1.3-1.6,2c-0.4,0.7-0.6,1.2-0.6,1.6c0,0.5,0.3,0.7,1,0.7c0.7,0,2-0.7,3.7-2v1.1
			c-1,0.9-1.8,1.6-2.4,2.2s-1.2,0.9-1.8,1.3c-0.5,0.3-1,0.5-1.4,0.5c-0.5,0-0.9-0.2-1.2-0.6c-0.3-0.4-0.5-1-0.5-1.8
			c0-0.5,0.1-1,0.4-1.5c0.3-0.6,0.6-1.2,1.1-1.9s1.1-1.4,1.7-2c-0.3,0.1-0.7,0.1-1.1,0.2c-0.4,0.1-0.8,0.1-1.3,0.2
			c-0.5,0.1-0.8,0.1-1.1,0.2C120.4,19.9,119.4,21.1,118,22.1z"/>
		<path class="st0" d="M131.5,21.5v0.4c0,0.6,0.2,1.1,0.5,1.5c0.3,0.3,0.8,0.5,1.3,0.5c0.6,0,1.2-0.1,1.8-0.4c0.6-0.2,1.2-0.6,1.8-1
			c0.6-0.4,1.4-0.9,2.2-1.6v1c-1.3,1.4-2.6,2.5-3.7,3.3c-1.2,0.8-2.3,1.1-3.5,1.1c-1,0-1.9-0.4-2.5-1.1s-0.9-1.7-0.9-3
			c0-1.1,0.3-2.1,0.9-3s1.5-1.9,2.8-2.9c0.9-0.7,1.8-1.2,2.7-1.6c0.9-0.3,1.7-0.5,2.4-0.5c0.6,0,1,0.1,1.3,0.3
			c0.3,0.2,0.5,0.6,0.5,1c0,0.7-0.3,1.3-0.8,2c-0.6,0.7-1.4,1.3-2.5,2C134.5,20.3,133.1,20.9,131.5,21.5z M131.6,20.5
			c1.1-0.4,2-0.8,2.7-1.4c0.8-0.5,1.3-1.1,1.7-1.6s0.5-0.9,0.5-1.1c0-0.2-0.1-0.4-0.4-0.4c-0.2,0-0.6,0.1-1,0.4
			c-0.5,0.2-1,0.6-1.4,0.9c-0.5,0.4-0.9,0.8-1.3,1.4C132,19.3,131.8,19.8,131.6,20.5z"/>
		<path class="st0" d="M141.2,18.1c1.8-1.5,3.5-2.5,5.2-3.2c1.7-0.7,3-1.1,3.9-1.1c0.2,0,0.5,0.1,0.7,0.3c0.2,0.2,0.4,0.4,0.5,0.6
			s0.2,0.4,0.2,0.5c0,0.2-0.1,0.3-0.2,0.4c-0.2,0.1-0.5,0.2-0.9,0.3c0.1,0.2,0.2,0.4,0.3,0.6c0.1,0.3,0.2,0.5,0.3,0.6
			c0.1,0.2,0.1,0.3,0.1,0.4c0,0.3-0.3,0.7-0.9,1.4s-1,1.2-1.2,1.5s-0.3,0.7-0.3,1.2c0,0.8,0.4,1.2,1.2,1.2c0.8,0,2.1-0.7,3.9-2.1v1
			c-3,3-5.1,4.4-6.4,4.4c-0.5,0-0.8-0.1-1-0.4c-0.2-0.3-0.3-0.7-0.3-1.2c0-0.8,0.3-2,1-3.6c-1.7,1.7-3,2.9-3.8,3.6
			c-0.8,0.7-1.5,1.1-2.1,1.1c-0.3,0-0.6-0.2-1-0.6c-0.4-0.4-0.7-0.9-1-1.6s-0.4-1.3-0.4-2c0-0.5,0.1-0.9,0.2-1.2s0.3-0.7,0.6-1
			S140.6,18.7,141.2,18.1z M149.7,16.4c-3,1.3-5.2,2.3-6.5,3.2c-1.3,0.9-1.9,1.8-1.9,2.7c0,0.3,0.1,0.6,0.2,0.8s0.3,0.3,0.5,0.3
			c0.1,0,0.4-0.1,0.7-0.2c1.2-0.7,2.4-1.5,3.4-2.6C147,19.6,148.2,18.2,149.7,16.4z"/>
		<path class="st0" d="M160,12.7h0.8c0.6-1,1.2-1.7,1.7-2.1s1.1-0.6,1.7-0.6s1,0.1,1,0.4c0,0.1-0.3,0.5-0.8,1
			c-0.5,0.6-0.9,1-1.1,1.4c0.4,0,0.8,0.1,1.1,0.1s0.6,0.1,0.7,0.1c-0.7,1.1-1.5,2.3-2.5,3.4c-0.3,0-0.6,0-0.8-0.1s-0.4,0-0.7,0
			s-0.5,0-0.8-0.1c-0.6,0.9-1.2,1.7-1.6,2.5c-0.4,0.7-0.8,1.4-1,2c-0.2,0.6-0.3,1.2-0.3,1.7c0,0.7,0.3,1.1,1,1.1
			c0.4,0,1-0.2,1.7-0.6c0.7-0.4,1.7-1.1,2.9-2v1.1c-3.2,3.1-5.5,4.6-7,4.6c-0.5,0-1-0.2-1.3-0.6c-0.3-0.4-0.5-0.8-0.5-1.4
			c0-0.4,0.1-0.9,0.3-1.4c0.2-0.5,0.5-1.3,1-2.4c-0.2,0.1-0.3,0.3-0.5,0.4c-0.1,0.1-0.3,0.2-0.4,0.3c-0.1,0.1-0.3,0.2-0.4,0.3
			s-0.3,0.2-0.4,0.3V21c1.2-0.9,2.7-2.6,4.5-4.9c-0.2,0-0.3,0-0.5,0c-0.2,0-0.3,0-0.5,0c-0.7,0-1.2,0-1.5,0.1
			c-0.1,0-0.3,0.1-0.4,0.1s-0.2,0.1-0.3,0.1c0,0-0.1,0-0.1-0.1c0-0.3,0.2-0.9,0.7-1.6c0.4-0.6,0.8-1,1.1-1.3
			c0.3-0.3,0.8-0.5,1.3-0.6C158.4,12.8,159.1,12.7,160,12.7z"/>
		<path class="st1" d="M167,25.9l13.8-22.5h5L172,25.9H167z"/>
		<path class="st0" d="M184.7,20.7l8.9-3.3l-8.9-3.7v-2.8l12.9,5.8v1.7l-12.9,5.1V20.7z"/>
	</g>
</g>
</svg>
